<svg xmlns="http://www.w3.org/2000/svg" xmlns:xlink="http://www.w3.org/1999/xlink" width="30" height="21" viewBox="0 0 30 21"><defs><path id="9hb3a" d="M1258 99c0-1.1.9-2 2-2h26a2 2 0 1 1 0 4h-26a2 2 0 0 1-2-2z"/><path id="9hb3b" d="M1258 91c0-1.1.9-2 2-2h26a2 2 0 1 1 0 4h-26a2 2 0 0 1-2-2z"/><path id="9hb3c" d="M1258 82c0-1.1.9-2 2-2h26a2 2 0 1 1 0 4h-26a2 2 0 0 1-2-2z"/></defs><g><g opacity=".6" transform="translate(-1258 -80)"><use xlink:href="#9hb3a"/></g><g opacity=".6" transform="translate(-1258 -80)"><use xlink:href="#9hb3b"/></g><g opacity=".6" transform="translate(-1258 -80)"><use xlink:href="#9hb3c"/></g></g></svg>