<svg xmlns="http://www.w3.org/2000/svg" xmlns:xlink="http://www.w3.org/1999/xlink" width="104" height="14"><defs><path id="a" d="M911.68 6506l2.53 4.4 5.15.95-3.58 3.66.65 4.99-4.75-2.13-4.75 2.13.65-4.99-3.58-3.66 5.15-.95 2.53-4.4"/><path id="b" d="M934.14 6506l2.53 4.4 5.15.95-3.59 3.66.65 4.99-4.74-2.13-4.75 2.13.65-4.99-3.59-3.66 5.15-.95 2.54-4.4"/><path id="c" d="M956.6 6506l2.52 4.4 5.15.95-3.58 3.66.65 4.99-4.75-2.13-4.75 2.13.65-4.99-3.58-3.66 5.15-.95 2.53-4.4"/><path id="d" d="M977.86 6506l2.54 4.4 5.15.95-3.59 3.66.65 4.99-4.75-2.13-4.74 2.13.65-4.99-3.59-3.66 5.15-.95 2.53-4.4"/><path id="e" d="M1000.32 6506l2.53 4.4 5.15.95-3.58 3.66.65 4.99-4.75-2.13-4.75 2.13.65-4.99-3.58-3.66 5.15-.95 2.53-4.4"/></defs><use fill="#f2da3b" xlink:href="#a" transform="translate(-904 -6506)"/><use fill="#f2da3b" xlink:href="#b" transform="translate(-904 -6506)"/><use fill="#f2da3b" xlink:href="#c" transform="translate(-904 -6506)"/><use fill="#f2da3b" xlink:href="#d" transform="translate(-904 -6506)"/><use fill="#f2da3b" xlink:href="#e" transform="translate(-904 -6506)"/></svg>